<svg width="220" height="72" viewBox="0 0 220 72" fill="none" xmlns="http://www.w3.org/2000/svg">
<path fill-rule="evenodd" clip-rule="evenodd" d="M0 13H2.53036V18.0202C2.53169 18.252 2.62436 18.474 2.78826 18.6379C2.95216 18.8018 3.17408 18.8944 3.40587 18.8958H11.3006C11.5324 18.8944 11.7543 18.8018 11.9182 18.6379C12.0821 18.474 12.1748 18.252 12.1761 18.0202V13H54.9696V18.0202C54.971 18.252 55.0636 18.474 55.2275 18.6379C55.3914 18.8018 55.6133 18.8944 55.8451 18.8958H63.7399C63.9717 18.8944 64.1936 18.8018 64.3575 18.6379C64.5214 18.474 64.6141 18.252 64.6154 18.0202V13H67.4545V57.9848H64.6053V53.5364C64.6039 53.3047 64.5113 53.0827 64.3474 52.9188C64.1835 52.7549 63.9616 52.6623 63.7298 52.6609H55.835C55.6032 52.6623 55.3813 52.7549 55.2174 52.9188C55.0535 53.0827 54.9608 53.3047 54.9595 53.5364V57.9848H12.1913V53.5364C12.19 53.3047 12.0973 53.0827 11.9334 52.9188C11.7695 52.7549 11.5476 52.6623 11.3158 52.6609H3.42105C3.18926 52.6623 2.96734 52.7549 2.80344 52.9188C2.63954 53.0827 2.54687 53.3047 2.54555 53.5364V57.9848H0.0151816V13H0ZM55.8603 22.1549C55.6285 22.1562 55.4066 22.2489 55.2427 22.4128C55.0788 22.5767 54.9861 22.7986 54.9848 23.0304V28.1822C54.9861 28.414 55.0788 28.6359 55.2427 28.7998C55.4066 28.9637 55.6285 29.0564 55.8603 29.0577H63.7551C63.9868 29.0564 64.2088 28.9637 64.3727 28.7998C64.5366 28.6359 64.6292 28.414 64.6306 28.1822V23.0304C64.6292 22.7986 64.5366 22.5767 64.3727 22.4128C64.2088 22.2489 63.9868 22.1562 63.7551 22.1549H55.8603ZM55.8603 32.3269C55.6285 32.3283 55.4066 32.4209 55.2427 32.5848C55.0788 32.7487 54.9861 32.9706 54.9848 33.2024V38.3745C54.9861 38.6063 55.0788 38.8282 55.2427 38.9921C55.4066 39.156 55.6285 39.2487 55.8603 39.25H63.7551C63.9868 39.2487 64.2088 39.156 64.3727 38.9921C64.5366 38.8282 64.6292 38.6063 64.6306 38.3745V33.2024C64.6292 32.9706 64.5366 32.7487 64.3727 32.5848C64.2088 32.4209 63.9868 32.3283 63.7551 32.3269H55.8603ZM55.8603 42.499C55.6285 42.5003 55.4066 42.593 55.2427 42.7569C55.0788 42.9208 54.9861 43.1427 54.9848 43.3745V48.5466C54.9861 48.7784 55.0788 49.0003 55.2427 49.1642C55.4066 49.3281 55.6285 49.4207 55.8603 49.4221H63.7551C63.9868 49.4207 64.2088 49.3281 64.3727 49.1642C64.5366 49.0003 64.6292 48.7784 64.6306 48.5466V43.3644C64.6292 43.1326 64.5366 42.9107 64.3727 42.7468C64.2088 42.5829 63.9868 42.4902 63.7551 42.4889L55.8603 42.499ZM3.42105 22.1549C3.18926 22.1562 2.96734 22.2489 2.80344 22.4128C2.63954 22.5767 2.54687 22.7986 2.54555 23.0304V28.1822C2.54687 28.414 2.63954 28.6359 2.80344 28.7998C2.96734 28.9637 3.18926 29.0564 3.42105 29.0577H11.3158C11.5476 29.0564 11.7695 28.9637 11.9334 28.7998C12.0973 28.6359 12.19 28.414 12.1913 28.1822V23.0304C12.19 22.7986 12.0973 22.5767 11.9334 22.4128C11.7695 22.2489 11.5476 22.1562 11.3158 22.1549H3.42105ZM3.42105 32.3269C3.18926 32.3283 2.96734 32.4209 2.80344 32.5848C2.63954 32.7487 2.54687 32.9706 2.54555 33.2024V38.3745C2.54687 38.6063 2.63954 38.8282 2.80344 38.9921C2.96734 39.156 3.18926 39.2487 3.42105 39.25H11.3158C11.5476 39.2487 11.7695 39.156 11.9334 38.9921C12.0973 38.8282 12.19 38.6063 12.1913 38.3745V33.2024C12.19 32.9706 12.0973 32.7487 11.9334 32.5848C11.7695 32.4209 11.5476 32.3283 11.3158 32.3269H3.42105ZM3.42105 42.499C3.18926 42.5003 2.96734 42.593 2.80344 42.7569C2.63954 42.9208 2.54687 43.1427 2.54555 43.3745V48.5466C2.54687 48.7784 2.63954 49.0003 2.80344 49.1642C2.96734 49.3281 3.18926 49.4207 3.42105 49.4221H11.3158C11.5476 49.4207 11.7695 49.3281 11.9334 49.1642C12.0973 49.0003 12.19 48.7784 12.1913 48.5466V43.3644C12.19 43.1326 12.0973 42.9107 11.9334 42.7468C11.7695 42.5829 11.5476 42.4902 11.3158 42.4889L3.42105 42.499Z" fill="#A967AA"/>
<path fill-rule="evenodd" clip-rule="evenodd" d="M51.8421 58L28.3451 50.3735L37.7783 32.7368L20.9413 27.4737L4.74696 32.3269H11.2905C11.5223 32.3283 11.7442 32.4209 11.9081 32.5848C12.072 32.7487 12.1647 32.9706 12.166 33.2024V38.3745C12.1647 38.6063 12.072 38.8282 11.9081 38.9921C11.7442 39.156 11.5223 39.2487 11.2905 39.25H3.39574C3.16396 39.2487 2.94204 39.156 2.77813 38.9921C2.61423 38.8282 2.52157 38.6063 2.52024 38.3745V33.2024C2.51942 33.1291 2.52793 33.056 2.54555 32.9848L0 33.749V57.9899H2.53036V53.5415C2.53169 53.3097 2.62436 53.0878 2.78826 52.9239C2.95216 52.76 3.17408 52.6673 3.40587 52.666H11.3006C11.5324 52.6673 11.7543 52.76 11.9182 52.9239C12.0821 53.0878 12.1748 53.3097 12.1761 53.5415V57.9899L51.8421 58ZM3.42105 42.499H11.3158C11.5458 42.5003 11.7663 42.5915 11.9299 42.7533C12.0935 42.915 12.1873 43.1343 12.1913 43.3644V48.5364C12.19 48.7682 12.0973 48.9901 11.9334 49.154C11.7695 49.318 11.5476 49.4106 11.3158 49.4119H3.42105C3.18926 49.4106 2.96734 49.318 2.80344 49.154C2.63954 48.9901 2.54687 48.7682 2.54555 48.5364V43.3644C2.54951 43.1343 2.64333 42.915 2.80695 42.7533C2.97057 42.5915 3.19099 42.5003 3.42105 42.499V42.499Z" fill="#993F98"/>
<path fill-rule="evenodd" clip-rule="evenodd" d="M27.7379 13L12.1913 45.6569V48.5516C12.19 48.7834 12.0973 49.0053 11.9334 49.1692C11.7695 49.3331 11.5476 49.4258 11.3158 49.4271H10.3948L8.85126 52.6711H11.3158C11.5146 52.6717 11.7072 52.7396 11.8625 52.8636C12.0178 52.9876 12.1266 53.1606 12.1711 53.3543L55.6934 18.9008C55.4887 18.8662 55.3028 18.7604 55.1685 18.6021C55.0342 18.4437 54.9602 18.243 54.9596 18.0354V13H27.7379Z" fill="#F06793"/>
<path fill-rule="evenodd" clip-rule="evenodd" d="M20.7338 27.6002L12.1913 45.6569V48.5516C12.1899 48.7834 12.0973 49.0053 11.9334 49.1692C11.7695 49.3331 11.5475 49.4258 11.3158 49.4271H10.4099L8.89166 52.6711H11.336C11.5276 52.6716 11.7138 52.7347 11.8663 52.8507C12.0189 52.9667 12.1294 53.1293 12.1811 53.3138L37.5961 33.2024L20.8957 27.5395L20.7338 27.6002Z" fill="#ED0973"/>
<path fill-rule="evenodd" clip-rule="evenodd" d="M55.6732 18.8907L12.1509 53.3036C12.1773 53.3871 12.1909 53.4742 12.1914 53.5617V55.7834L58.4262 39.2652H55.8604C55.6286 39.2639 55.4067 39.1712 55.2428 39.0073C55.0789 38.8434 54.9862 38.6215 54.9849 38.3897V33.2024C54.9862 32.9706 55.0789 32.7487 55.2428 32.5848C55.4067 32.4209 55.6286 32.3283 55.8604 32.3269H63.7551C63.9869 32.3283 64.2088 32.4209 64.3727 32.5848C64.5366 32.7487 64.6293 32.9706 64.6306 33.2024V37.0385L67.4798 36.0263V13H64.6306V18.0202C64.6293 18.252 64.5366 18.474 64.3727 18.6379C64.2088 18.8018 63.9869 18.8944 63.7551 18.8957H55.8604C55.7982 18.9024 55.7354 18.9024 55.6732 18.8957V18.8907ZM55.8604 22.1549H63.7551C63.9869 22.1562 64.2088 22.2489 64.3727 22.4128C64.5366 22.5767 64.6293 22.7986 64.6306 23.0304V28.1822C64.6293 28.414 64.5366 28.6359 64.3727 28.7998C64.2088 28.9637 63.9869 29.0564 63.7551 29.0577H55.8604C55.6277 29.0577 55.4045 28.9656 55.2395 28.8016C55.0745 28.6375 54.9812 28.4148 54.9798 28.1822V23.0304C54.9812 22.7977 55.0745 22.575 55.2395 22.411C55.4045 22.2469 55.6277 22.1549 55.8604 22.1549Z" fill="#FFCB05"/>
<path fill-rule="evenodd" clip-rule="evenodd" d="M37.5406 33.2429L12.1509 53.3138C12.1773 53.3973 12.1909 53.4843 12.1914 53.5719V55.7935L28.6286 49.9231L37.5406 33.2429Z" fill="#FFDD00"/>
<path fill-rule="evenodd" clip-rule="evenodd" d="M67.4544 35.9909L64.6052 37.003V38.3745C64.6039 38.6063 64.5112 38.8282 64.3473 38.9921C64.1834 39.156 63.9615 39.2487 63.7298 39.25H58.3148L12.1913 55.6721V58H54.9848V53.5516C54.9861 53.3198 55.0788 53.0979 55.2427 52.934C55.4066 52.7701 55.6285 52.6774 55.8603 52.6761H63.755C63.9868 52.6774 64.2088 52.7701 64.3727 52.934C64.5366 53.0979 64.6292 53.3198 64.6306 53.5516V58H67.4544V35.9909ZM55.8148 42.499H63.7095C63.9413 42.5003 64.1632 42.593 64.3271 42.7569C64.491 42.9208 64.5837 43.1427 64.585 43.3745V48.5466C64.5837 48.7784 64.491 49.0003 64.3271 49.1642C64.1632 49.3281 63.9413 49.4207 63.7095 49.4221H55.8148C55.583 49.4207 55.3611 49.3281 55.1972 49.1642C55.0333 49.0003 54.9406 48.7784 54.9393 48.5466V43.3644C54.9412 43.2465 54.9667 43.1303 55.0144 43.0225C55.062 42.9147 55.1309 42.8176 55.2168 42.7369C55.3026 42.6562 55.4039 42.5935 55.5144 42.5527C55.625 42.5118 55.7426 42.4936 55.8603 42.499H55.8148Z" fill="#FAA634"/>
<path fill-rule="evenodd" clip-rule="evenodd" d="M28.6741 49.8067L12.1862 55.748V57.9949H53.7399L28.6741 49.8067Z" fill="#F28527"/>
<path fill-rule="evenodd" clip-rule="evenodd" d="M86.0564 13.1528H81.4865V30.2584H86.048V23.5503H87.4148L92.1775 30.2584H97.8291L91.3055 21.5463L97.326 13.1612H91.8086L87.4064 19.5926H86.0396V13.1612L86.0564 13.1528ZM103.892 25.5125H107.925C108.742 25.5264 109.56 25.4619 110.365 25.3196C110.961 25.2179 111.531 24.9984 112.042 24.6739C112.487 24.3795 112.848 23.9751 113.09 23.5C113.363 22.9348 113.542 22.3286 113.618 21.7056C113.729 20.8719 113.78 20.0312 113.769 19.1901C113.79 18.2354 113.683 17.2822 113.451 16.3559C113.279 15.6558 112.929 15.0117 112.436 14.4861C111.932 13.9905 111.308 13.6349 110.625 13.4547C109.744 13.2237 108.835 13.1164 107.925 13.136H99.33V30.2417H103.892V25.4957V25.5125ZM103.892 16.8926H107.019C107.381 16.8802 107.742 16.9197 108.092 17.01C108.336 17.0769 108.553 17.2175 108.713 17.4124C108.865 17.6263 108.963 17.8737 108.998 18.1336C109.051 18.5 109.073 18.8702 109.065 19.2404C109.075 19.6861 109.05 20.1319 108.99 20.5736C108.958 20.8502 108.854 21.1134 108.688 21.3367C108.526 21.5204 108.308 21.6444 108.067 21.6889C107.719 21.7557 107.365 21.7839 107.011 21.7727H103.883V16.8926H103.892ZM120.603 13.1528H116.268V30.2584H122.473L127.605 18.9888H127.764V30.25H132.099V13.1444H126.104L120.771 24.4056H120.611V13.1528H120.603ZM149.657 19.2907V18.6283C149.686 17.6991 149.532 16.7733 149.205 15.9031C148.929 15.2128 148.464 14.6141 147.863 14.1758C147.203 13.7205 146.454 13.4091 145.666 13.2618C144.674 13.0729 143.665 12.9858 142.656 13.0019C141.734 12.993 140.813 13.0378 139.897 13.136C139.131 13.2149 138.379 13.3924 137.658 13.6643C137.024 13.9035 136.451 14.2817 135.981 14.7711C135.496 15.312 135.143 15.9577 134.95 16.6578C134.691 17.5854 134.57 18.5459 134.589 19.5087V23.8774C134.577 24.7712 134.67 25.6634 134.866 26.5354C135.01 27.188 135.274 27.8079 135.646 28.3634C135.968 28.8266 136.385 29.2154 136.87 29.5038C137.373 29.7983 137.919 30.0106 138.488 30.1327C139.128 30.2743 139.779 30.3612 140.434 30.3926C141.13 30.3926 141.868 30.4513 142.647 30.4429C143.772 30.4667 144.896 30.374 146.002 30.1662C146.789 30.0238 147.529 29.6898 148.156 29.1935C148.718 28.6944 149.12 28.0412 149.314 27.3153C149.568 26.3414 149.684 25.3364 149.657 24.3302V23.8774H144.962V24.3805C144.977 24.7814 144.92 25.1819 144.794 25.5628C144.699 25.8309 144.516 26.0586 144.274 26.2084C144.016 26.354 143.731 26.4453 143.436 26.4768C143.023 26.5192 142.609 26.536 142.195 26.5271C141.744 26.5373 141.293 26.4922 140.853 26.3929C140.545 26.3292 140.257 26.191 140.015 25.9904C139.808 25.7982 139.655 25.5554 139.57 25.2861C139.466 24.9542 139.404 24.6105 139.386 24.2631C139.386 23.8662 139.386 23.4134 139.386 22.9047V20.2382C139.378 19.7226 139.406 19.2071 139.469 18.6954C139.507 18.3346 139.634 17.9888 139.838 17.6892C140.052 17.4222 140.346 17.2311 140.677 17.1441C141.181 17.0151 141.7 16.9587 142.22 16.9764C142.695 16.9684 143.17 17.0105 143.637 17.1022C144.012 17.1689 144.361 17.3404 144.643 17.5969C144.775 17.7348 144.877 17.8982 144.943 18.077C145.01 18.2558 145.039 18.4462 145.029 18.6367V19.2991L149.657 19.2907ZM160.306 17.1274H164.91V13.1612H151.133V17.1274H155.737V30.25H160.306V17.119V17.1274ZM176.523 27.3236H170.369L169.53 30.2668H164.784L169.916 13.1612H176.85L182.049 30.2668H177.395L176.507 27.3236H176.523ZM175.593 24.0199L173.496 16.5907H173.454L171.383 24.0199H175.593ZM185.462 13.1528V24.3721C185.479 24.8276 185.425 25.283 185.302 25.7221C185.223 26.0269 185.035 26.2924 184.774 26.4684C184.47 26.6373 184.124 26.7158 183.776 26.6948C183.519 26.7077 183.262 26.7077 183.005 26.6948C182.794 26.6735 182.586 26.6285 182.384 26.5606V30.2584L183.08 30.3758C183.315 30.3758 183.567 30.4261 183.827 30.4429C184.087 30.4597 184.389 30.4429 184.707 30.4429C185.481 30.4562 186.249 30.3077 186.963 30.0069C187.585 29.734 188.13 29.3104 188.548 28.7743C188.984 28.1971 189.3 27.5386 189.478 26.8373C189.692 26.0161 189.796 25.1703 189.789 24.3218V17.1357H194.736V30.25H199.297V13.1444L185.462 13.1528ZM204.094 13.1528V24.3721C204.11 24.8276 204.056 25.283 203.934 25.7221C203.855 26.0269 203.667 26.2924 203.406 26.4684C203.102 26.6373 202.755 26.7158 202.408 26.6948C202.151 26.7077 201.894 26.7077 201.637 26.6948C201.425 26.6735 201.217 26.6285 201.016 26.5606V30.2584L201.712 30.3758C201.947 30.3758 202.198 30.4261 202.458 30.4429C202.718 30.4597 203.02 30.4429 203.339 30.4429C204.113 30.4562 204.881 30.3077 205.594 30.0069C206.217 29.734 206.762 29.3104 207.179 28.7743C207.616 28.1971 207.932 27.5386 208.11 26.8373C208.324 26.0161 208.428 25.1703 208.42 24.3218V17.1357H213.367V30.25H217.929V13.1444L204.094 13.1528ZM110.289 46.7855V46.123C110.318 45.1938 110.164 44.268 109.837 43.3979C109.561 42.7073 109.096 42.1086 108.495 41.6706C107.835 41.2155 107.086 40.9041 106.298 40.7566C105.306 40.5678 104.297 40.4807 103.288 40.4966C102.366 40.488 101.445 40.5327 100.529 40.6308C99.7631 40.7094 99.0106 40.887 98.2903 41.1591C97.6557 41.3983 97.0827 41.7764 96.6132 42.2659C96.1286 42.8069 95.7757 43.4526 95.5819 44.1525C95.3231 45.0801 95.2016 46.0407 95.2213 47.0035V51.4308C95.2087 52.3246 95.3015 53.2168 95.498 54.0889C95.6421 54.7414 95.9065 55.3613 96.2778 55.9169C96.5998 56.38 97.0172 56.7689 97.5021 57.0572C98.0046 57.3517 98.5509 57.564 99.1204 57.6861C99.7603 57.8278 100.411 57.9148 101.066 57.946C101.762 57.946 102.5 58.0047 103.279 57.9964C104.404 58.0201 105.528 57.9274 106.633 57.7196C107.421 57.5773 108.161 57.2432 108.788 56.747C109.35 56.2478 109.752 55.5947 109.946 54.8687C110.2 53.8948 110.316 52.8899 110.289 51.8836V51.3805H105.594V51.8836C105.609 52.2846 105.552 52.685 105.426 53.0659C105.331 53.334 105.148 53.5618 104.906 53.7116C104.648 53.8573 104.362 53.9486 104.068 53.9799C103.655 54.0223 103.241 54.0392 102.827 54.0302C102.376 54.0404 101.925 53.9954 101.485 53.896C101.177 53.8323 100.889 53.6941 100.646 53.4936C100.44 53.3013 100.287 53.0586 100.202 52.7892C100.098 52.4573 100.036 52.1136 100.018 51.7662C100.018 51.3693 100.018 50.9165 100.018 50.4078V47.7414C100.01 47.2258 100.038 46.7102 100.101 46.1985C100.139 45.8376 100.266 45.4918 100.47 45.1923C100.684 44.9249 100.978 44.7337 101.309 44.6473C101.813 44.5181 102.332 44.4616 102.852 44.4796C103.327 44.4711 103.802 44.5133 104.269 44.6053C104.644 44.672 104.993 44.8435 105.275 45.1001C105.407 45.238 105.509 45.4013 105.575 45.5801C105.642 45.7589 105.671 45.9494 105.661 46.1398V46.8022L110.289 46.7855ZM117.123 40.6476H112.788V57.7532H118.993L124.125 46.5171H124.251V57.7532H128.586V40.6476H122.59L117.257 51.9088H117.098V40.6476H117.123ZM136.141 40.6476H131.579V57.7532H136.141V51.0451H142.094V57.7532H146.656V40.6476H142.094V47.0789H136.141V40.6476ZM154.177 44.3873H161.984V40.6476H149.624V57.7532H162.118V54.0134H154.185V50.6594H161.48V47.4898H154.185V44.3622L154.177 44.3873ZM165.078 40.6476V57.7532H169.639L169.186 44.6389L169.388 44.597L173.723 57.7532H177.664L181.948 44.597L182.158 44.6389L181.705 57.7532H186.3V40.6476H178.888L175.785 51.3889H175.626L172.331 40.6476H165.078ZM199.557 54.81L200.446 57.7532H205.1L199.901 40.6476H193.008L187.877 57.7532H192.623L193.461 54.81H199.557ZM198.626 51.5063H194.434L196.505 44.0687H196.547L198.626 51.5063Z" fill="white"/>
<path d="M84.9329 51.9591C86.3778 51.9591 87.5491 50.7878 87.5491 49.3429C87.5491 47.8981 86.3778 46.7268 84.9329 46.7268C83.4881 46.7268 82.3168 47.8981 82.3168 49.3429C82.3168 50.7878 83.4881 51.9591 84.9329 51.9591Z" fill="#F28527"/>
<path d="M214.508 51.9591C215.953 51.9591 217.124 50.7878 217.124 49.3429C217.124 47.8981 215.953 46.7268 214.508 46.7268C213.063 46.7268 211.892 47.8981 211.892 49.3429C211.892 50.7878 213.063 51.9591 214.508 51.9591Z" fill="#BFD730"/>
</svg>
